<svg xmlns="http://www.w3.org/2000/svg" width="16" height="16" fill="#29363d" viewBox="0 0 24 24" part="inner-svg"><g fill-rule="evenodd" clip-path="url(#a)" clip-rule="evenodd"><path d="M9 9.758a3 3 0 1 1 6 0 3 3 0 0 1-6 0Zm3-1.5a1.5 1.5 0 1 0 0 3 1.5 1.5 0 0 0 0-3Z"></path><path d="M7.5 3.75A1.5 1.5 0 0 0 6 5.25v13.5a1.5 1.5 0 0 0 1.5 1.5h9a1.5 1.5 0 0 0 1.5-1.5V5.25a1.5 1.5 0 0 0-1.5-1.5h-9Zm9 11.498V5.25h-9v9.998l.105-.06c.98-.544 2.425-.938 4.395-.938 1.97 0 3.415.394 4.395.938l.105.06Zm-9 2.016v1.486h9v-1.486l-.001-.003a.647.647 0 0 0-.125-.207c-.128-.158-.352-.357-.707-.555-.707-.393-1.887-.749-3.667-.749-1.78 0-2.96.356-3.667.75-.355.197-.58.396-.707.554a.647.647 0 0 0-.125.207l-.001.003Z"></path><path d="M5.25 0a.75.75 0 0 0 1.352.448l.01-.014.01-.013a1.125 1.125 0 0 1 1.755 0l.01.012.01.012a.736.736 0 0 0 .265.22.75.75 0 0 0 .676 0 .736.736 0 0 0 .266-.22l.009-.012.01-.012a1.125 1.125 0 0 1 1.755 0l.01.012.008.012a.736.736 0 0 0 .266.22.75.75 0 0 0 .676 0 .736.736 0 0 0 .266-.22l.009-.012.01-.012a1.125 1.125 0 0 1 1.755 0l.01.012.008.012a.737.737 0 0 0 .266.22.75.75 0 0 0 .676 0 .737.737 0 0 0 .266-.22l.009-.012.01-.012a1.125 1.125 0 0 1 1.755 0l.01.013.01.014a.736.736 0 0 0 .265.22A.75.75 0 0 0 18.75 0h3v2.25a.75.75 0 0 0-.668 1.087.735.735 0 0 0 .207.266 1.103 1.103 0 0 1 0 1.794.704.704 0 0 0-.208.26.75.75 0 0 0 0 .679.735.735 0 0 0 .208.267 1.102 1.102 0 0 1 0 1.794.704.704 0 0 0-.208.26.75.75 0 0 0 0 .679.735.735 0 0 0 .208.267 1.102 1.102 0 0 1 0 1.794.704.704 0 0 0-.208.26.75.75 0 0 0 0 .679.735.735 0 0 0 .208.267 1.102 1.102 0 0 1 0 1.794.704.704 0 0 0-.208.26.75.75 0 0 0 0 .679.734.734 0 0 0 .208.267 1.103 1.103 0 0 1 0 1.794.704.704 0 0 0-.208.26.75.75 0 0 0 0 .679.734.734 0 0 0 .208.267 1.103 1.103 0 0 1 0 1.794.703.703 0 0 0-.208.26.75.75 0 0 0-.081.341V21a.75.75 0 0 0 .75.75V24h-3a.75.75 0 0 0-1.087-.668.716.716 0 0 0-.264.209 1.11 1.11 0 0 1-1.797.002.716.716 0 0 0-.264-.207.75.75 0 0 0-.676 0 .716.716 0 0 0-.264.207 1.11 1.11 0 0 1-1.796 0 .716.716 0 0 0-.264-.207.75.75 0 0 0-.676 0 .716.716 0 0 0-.264.207 1.11 1.11 0 0 1-1.796 0 .717.717 0 0 0-.264-.207.75.75 0 0 0-.676 0 .717.717 0 0 0-.264.207A1.11 1.11 0 0 1 6.6 23.54a.716.716 0 0 0-.264-.21.75.75 0 0 0-.867.139.75.75 0 0 0-.22.53h-3v-2.25A.75.75 0 0 0 3 21v-.002a.75.75 0 0 0-.077-.332.798.798 0 0 0-.23-.264l-.004-.003a1.14 1.14 0 0 1 0-1.798l.004-.003a.798.798 0 0 0 .23-.264.75.75 0 0 0 .077-.332v-.004a.75.75 0 0 0-.077-.332.798.798 0 0 0-.23-.264l-.004-.003a1.14 1.14 0 0 1 0-1.798l.004-.003a.798.798 0 0 0 .23-.264.75.75 0 0 0 .077-.332v-.004a.75.75 0 0 0-.077-.332.798.798 0 0 0-.23-.264l-.004-.003a1.14 1.14 0 0 1 0-1.798l.004-.003a.798.798 0 0 0 .23-.264.75.75 0 0 0 .077-.332v-.004a.75.75 0 0 0-.077-.332.798.798 0 0 0-.23-.264l-.004-.003a1.14 1.14 0 0 1 0-1.798l.004-.003a.799.799 0 0 0 .23-.264A.75.75 0 0 0 3 9.002v-.004a.75.75 0 0 0-.077-.332.799.799 0 0 0-.23-.264l-.004-.003a1.14 1.14 0 0 1 0-1.798l.004-.003a.799.799 0 0 0 .23-.264A.75.75 0 0 0 3 6.002v-.004a.75.75 0 0 0-.077-.332.799.799 0 0 0-.23-.264l-.004-.003a1.14 1.14 0 0 1 0-1.798l.004-.003a.799.799 0 0 0 .23-.264A.75.75 0 0 0 3 3.002V3a.75.75 0 0 0-.75-.75V0h3Zm-.841 22.409c-.03.03-.058.06-.086.091h-.396a2.25 2.25 0 0 0 .343-2.495 2.15 2.15 0 0 0-.349-.505 2.15 2.15 0 0 0 .349-.505c.152-.31.23-.65.23-.995v.002-.004V18a2.25 2.25 0 0 0-.23-.995 2.15 2.15 0 0 0-.349-.505 2.15 2.15 0 0 0 .349-.505c.152-.31.23-.65.23-.995v.002-.004V15a2.25 2.25 0 0 0-.23-.995 2.15 2.15 0 0 0-.349-.505c.134-.146.256-.315.349-.505.152-.31.23-.65.23-.995v.002-.004V12a2.25 2.25 0 0 0-.23-.995 2.15 2.15 0 0 0-.349-.505c.134-.146.256-.315.349-.505.152-.31.23-.65.23-.995v.002-.004V9a2.25 2.25 0 0 0-.23-.995 2.148 2.148 0 0 0-.349-.505c.134-.146.256-.315.349-.505.152-.31.23-.65.23-.995v.002-.004V6a2.25 2.25 0 0 0-.23-.995 2.148 2.148 0 0 0-.349-.505c.134-.146.256-.315.349-.505A2.25 2.25 0 0 0 3.927 1.5h.396A2.255 2.255 0 0 0 6 2.25h.002A2.25 2.25 0 0 0 7.5 1.676a2.25 2.25 0 0 0 3 0 2.25 2.25 0 0 0 3 0 2.25 2.25 0 0 0 3 0 2.289 2.289 0 0 0 1.497.574H18a2.25 2.25 0 0 0 1.677-.75h.396A2.25 2.25 0 0 0 19.5 3v.002c0 .353.085.7.245 1.016.083.163.187.327.319.48a2.32 2.32 0 0 0-.32.48 2.25 2.25 0 0 0 0 2.037c.083.164.187.33.32.484-.13.148-.235.31-.32.478a2.25 2.25 0 0 0 0 2.038c.083.164.187.33.32.483a2.32 2.32 0 0 0-.32.48 2.25 2.25 0 0 0 0 2.037c.083.164.187.33.32.483a2.32 2.32 0 0 0-.32.48 2.25 2.25 0 0 0 0 2.037c.083.164.187.33.32.483a2.32 2.32 0 0 0-.32.48 2.25 2.25 0 0 0 0 2.037c.083.164.187.33.32.483-.13.15-.236.313-.322.482a2.25 2.25 0 0 0 .33 2.52h-.395A2.25 2.25 0 0 0 18 21.75h-.002a2.25 2.25 0 0 0-1.015.245 2.37 2.37 0 0 0-.484.323 2.374 2.374 0 0 0-.484-.321 2.25 2.25 0 0 0-2.03 0c-.167.084-.332.19-.485.322a2.375 2.375 0 0 0-.485-.322 2.25 2.25 0 0 0-2.03 0c-.167.084-.332.19-.485.322a2.375 2.375 0 0 0-.485-.322 2.25 2.25 0 0 0-2.03 0c-.167.084-.332.19-.484.32a2.371 2.371 0 0 0-.483-.322 2.25 2.25 0 0 0-1.016-.245H6a2.25 2.25 0 0 0-1.591.659Z"></path></g><defs><clipPath id="a"><path d="M0 0h24v24H0z"></path></clipPath></defs></svg>